o Slice4
v 0 0 0
v 0.9995065603657316 0 0.031410759078128292
v 1 -0.03 0
v 0.99802672842827156 0 0.062790519529313374
v 0.99211470131447788 0 0.12533323356430426
v 0.98228725072868872 0 0.1873813145857246
v 0.97591676193874743 0 0.21814324139654251
v 0.96858316112863108 -0.03 0.2486898871648548
v 0 -0.1 0
v 0 -0.03 0
v 1 -0.1 0
v 0.96858316112863108 -0.1 0.2486898871648548
vn 0.0009423227723438487 0.031410759078128292 -0.029985196810971948
vn 0 0.0314107590781283 0
vn 0 0.062790519529313388 0
vn 0 0.062790519529313332 0
vn 0 0.031410759078128285 0
vn -0.0065442972418962748 0.031410759078128361 0.02927750285816242
vn 0 0 -0.07
vn -0.017408292101539838 0 0.067800821279004178
g Slice4
f 1//1 2//1 3//1
f 1//2 4//2 2//2
f 1//3 5//3 4//3
f 1//4 6//4 5//4
f 1//5 7//5 6//5
f 1//6 8//6 7//6
f 9//7 10//7 3//7 11//7
f 10//8 9//8 12//8 8//8
