o Slice12
v 0 0 0
v 0.9995065603657316 0 0.031410759078128292
v 1 -0.03 0
v 0.99802672842827156 0 0.062790519529313374
v 0.99211470131447788 0 0.12533323356430426
v 0.98228725072868872 0 0.1873813145857246
v 0.96858316112863108 0 0.2486898871648548
v 0.95105651629515353 0 0.3090169943749474
v 0.92977648588825146 0 0.36812455268467792
v 0.90482705246601958 0 0.4257792915650726
v 0.87630668004386358 0 0.48175367410171532
v 0.84432792550201519 0 0.53582679497899655
v 0.80901699437494745 0 0.58778525229247314
v 0.77051324277578914 0 0.63742398974868975
v 0.75011106963045959 0 0.66131186532365183
v 0.72896862742141155 -0.03 0.68454710592868862
v 0 -0.1 0
v 1 -0.1 0
v 0.72896862742141155 -0.1 0.68454710592868862
vn 0.0009423227723438487 0.031410759078128292 -0.029985196810971948
vn 0 0.0314107590781283 0
vn 0 0.062790519529313388 0
vn 0 0.062790519529313332 0
vn 0 0.062790519529313429 0
vn 0 0.062790519529313374 0
vn 0 0.062790519529313485 0
vn 0 0.062790519529313221 0
vn 0 0.0627905195293135 0
vn 0 0.062790519529313471 0
vn 0 0.031410759078128139 0
vn -0.019839355959709554 0.031410759078128306 0.022503332088913787
vn 0 0 -0.1
vn -0.068454710592868867 0 0.072896862742141161
g Slice12
f 1//1 2//1 3//1
f 1//2 4//2 2//2
f 1//3 5//3 4//3
f 1//4 6//4 5//4
f 1//5 7//5 6//5
f 1//4 8//4 7//4
f 1//4 9//4 8//4
f 1//6 10//6 9//6
f 1//7 11//7 10//7
f 1//8 12//8 11//8
f 1//9 13//9 12//9
f 1//10 14//10 13//10
f 1//11 15//11 14//11
f 1//12 16//12 15//12
f 17//13 1//13 3//13 18//13
f 1//14 17//14 19//14 16//14
