o Slice17
v 0 0 0
v 0.9995065603657316 0 0.031410759078128292
v 1 -0.03 0
v 0.99802672842827156 0 0.062790519529313374
v 0.99211470131447788 0 0.12533323356430426
v 0.98228725072868872 0 0.1873813145857246
v 0.96858316112863108 0 0.2486898871648548
v 0.95105651629515353 0 0.3090169943749474
v 0.92977648588825146 0 0.36812455268467792
v 0.90482705246601958 0 0.4257792915650726
v 0.87630668004386358 0 0.48175367410171532
v 0.84432792550201519 0 0.53582679497899655
v 0.80901699437494745 0 0.58778525229247314
v 0.77051324277578914 0 0.63742398974868975
v 0.72896862742141155 0 0.68454710592868862
v 0.68454710592868862 0 0.72896862742141155
v 0.63742398974868986 0 0.77051324277578914
v 0.58778525229247314 0 0.80901699437494745
v 0.53582679497899655 0 0.84432792550201508
v 0.50904141575037143 0 0.86074202700394353
v 0.48175367410171532 -0.03 0.87630668004386358
v 0 -0.1 0
v 1 -0.1 0
v 0.48175367410171532 -0.1 0.87630668004386358
vn 0.0009423227723438487 0.031410759078128292 -0.029985196810971948
vn 0 0.0314107590781283 0
vn 0 0.062790519529313388 0
vn 0 0.062790519529313332 0
vn 0 0.062790519529313429 0
vn 0 0.062790519529313374 0
vn 0 0.062790519529313485 0
vn 0 0.062790519529313221 0
vn 0 0.0627905195293135 0
vn 0 0.062790519529313471 0
vn 0 0.062790519529313138 0
vn 0 0.062790519529313554 0
vn 0 0.03141075907812807 0
vn -0.025822260810118305 0.031410759078128417 0.015271242472511142
vn 0 0 -0.1
vn -0.087630668004386361 0 0.048175367410171532
g Slice17
f 1//1 2//1 3//1
f 1//2 4//2 2//2
f 1//3 5//3 4//3
f 1//4 6//4 5//4
f 1//5 7//5 6//5
f 1//4 8//4 7//4
f 1//4 9//4 8//4
f 1//6 10//6 9//6
f 1//7 11//7 10//7
f 1//8 12//8 11//8
f 1//9 13//9 12//9
f 1//10 14//10 13//10
f 1//8 15//8 14//8
f 1//9 16//9 15//9
f 1//11 17//11 16//11
f 1//12 18//12 17//12
f 1//5 19//5 18//5
f 1//13 20//13 19//13
f 1//14 21//14 20//14
f 22//15 1//15 3//15 23//15
f 1//16 22//16 24//16 21//16
