o Slice6
v 0 0 0
v 0.9995065603657316 0 0.031410759078128292
v 1 -0.03 0
v 0.99802672842827156 0 0.062790519529313374
v 0.99211470131447788 0 0.12533323356430426
v 0.98228725072868872 0 0.1873813145857246
v 0.96858316112863108 0 0.2486898871648548
v 0.95105651629515353 0 0.3090169943749474
v 0.94088076895422545 0 0.33873792024529142
v 0.92977648588825146 -0.03 0.36812455268467792
v 0 -0.1 0
v 1 -0.1 0
v 0.92977648588825146 -0.1 0.36812455268467792
vn 0.0009423227723438487 0.031410759078128292 -0.029985196810971948
vn 0 0.0314107590781283 0
vn 0 0.062790519529313388 0
vn 0 0.062790519529313332 0
vn 0 0.062790519529313429 0
vn 0 0.031410759078128354 0
vn -0.010162137607358741 0.031410759078128195 0.028226423068626761
vn 0 0 -0.1
vn -0.036812455268467791 0 0.092977648588825151
g Slice6
f 1//1 2//1 3//1
f 1//2 4//2 2//2
f 1//3 5//3 4//3
f 1//4 6//4 5//4
f 1//5 7//5 6//5
f 1//4 8//4 7//4
f 1//6 9//6 8//6
f 1//7 10//7 9//7
f 11//8 1//8 3//8 12//8
f 1//9 11//9 13//9 10//9
