o Slice7
v 0 0 0
v 0.9995065603657316 0 0.031410759078128292
v 1 -0.03 0
v 0.99802672842827156 0 0.062790519529313374
v 0.99211470131447788 0 0.12533323356430426
v 0.98228725072868872 0 0.1873813145857246
v 0.96858316112863108 0 0.2486898871648548
v 0.95105651629515353 0 0.3090169943749474
v 0.92977648588825146 0 0.36812455268467792
v 0.91775462568398114 0 0.39714789063478062
v 0.90482705246601958 -0.03 0.4257792915650726
v 0 -0.1 0
v 1 -0.1 0
v 0.90482705246601958 -0.1 0.4257792915650726
vn 0.0009423227723438487 0.031410759078128292 -0.029985196810971948
vn 0 0.0314107590781283 0
vn 0 0.062790519529313388 0
vn 0 0.062790519529313332 0
vn 0 0.062790519529313429 0
vn 0 0.031410759078128361 0
vn -0.011914436719043417 0.031410759078128223 0.027532638770519435
vn 0 0 -0.1
vn -0.042577929156507266 0 0.090482705246601958
g Slice7
f 1//1 2//1 3//1
f 1//2 4//2 2//2
f 1//3 5//3 4//3
f 1//4 6//4 5//4
f 1//5 7//5 6//5
f 1//4 8//4 7//4
f 1//4 9//4 8//4
f 1//6 10//6 9//6
f 1//7 11//7 10//7
f 12//8 1//8 3//8 13//8
f 1//9 12//9 14//9 11//9
