o Slice3
v 0 0 0
v 0.9995065603657316 0 0.031410759078128292
v 1 -0.03 0
v 0.99802672842827156 0 0.062790519529313374
v 0.99211470131447788 0 0.12533323356430426
v 0.98768834059513777 0 0.15643446504023087
v 0.98228725072868872 -0.03 0.1873813145857246
v 0 -0.1 0
v 1 -0.1 0
v 0.98228725072868872 -0.1 0.1873813145857246
vn 0.0009423227723438487 0.031410759078128292 -0.029985196810971948
vn 0 0.0314107590781283 0
vn 0 0.062790519529313388 0
vn 0 0.031410759078128278 0
vn -0.0046930339512069267 0.031410759078128264 0.029630650217854132
vn 0 0 -0.1
vn -0.018738131458572459 0 0.09822872507286888
g Slice3
f 1//1 2//1 3//1
f 1//2 4//2 2//2
f 1//3 5//3 4//3
f 1//4 6//4 5//4
f 1//5 7//5 6//5
f 8//6 1//6 3//6 9//6
f 1//7 8//7 10//7 7//7
